{
  "accessors": [
    {
      "name": "teifel-Mesh_0_positions",
      "componentType": 5126,
      "count": 19744,
      "min": [
        -88.95002746582031,
        16.504608154296875,
        -88.18922424316406
      ],
      "max": [
        73.84272003173828,
        406.388671875,
        83.65775299072266
      ],
      "type": "VEC3",
      "bufferView": 0,
      "byteOffset": 0
    },
    {
      "name": "teifel-Mesh_0_normals",
      "componentType": 5126,
      "count": 19744,
      "min": [
        -1,
        -1,
        -1
      ],
      "max": [
        1,
        1,
        1
      ],
      "type": "VEC3",
      "bufferView": 1,
      "byteOffset": 0
    },
    {
      "name": "teifel-Mesh_0_indices",
      "componentType": 5123,
      "count": 37230,
      "min": [
        0
      ],
      "max": [
        19743
      ],
      "type": "SCALAR",
      "bufferView": 2,
      "byteOffset": 0
    }
  ],
  "asset": {
    "generator": "obj2gltf",
    "version": "2.0"
  },
  "buffers": [
    {
      "name": "effel-tower",
      "byteLength": 548316,
      "uri": "data:application/octet-stream;base64,"
    }
  ],
  "bufferViews": [
    {
      "name": "bufferView_0",
      "buffer": 0,
      "byteLength": 236928,
      "byteOffset": 0,
      "byteStride": 12,
      "target": 34962
    },
    {
      "name": "bufferView_1",
      "buffer": 0,
      "byteLength": 236928,
      "byteOffset": 236928,
      "byteStride": 12,
      "target": 34962
    },
    {
      "name": "bufferView_2",
      "buffer": 0,
      "byteLength": 74460,
      "byteOffset": 473856,
      "target": 34963
    }
  ],
  "materials": [
    {
      "name": "4e8af7",
      "pbrMetallicRoughness": {
        "baseColorFactor": [
          0.305882,
          0.541176,
          0.968627,
          1
        ],
        "metallicFactor": 0,
        "roughnessFactor": 0.894917606251191
      },
      "emissiveFactor": [
        0,
        0,
        0
      ],
      "alphaMode": "OPAQUE",
      "doubleSided": false
    }
  ],
  "meshes": [
    {
      "name": "teifel-Mesh",
      "primitives": [
        {
          "attributes": {
            "POSITION": 0,
            "NORMAL": 1
          },
          "indices": 2,
          "material": 0,
          "mode": 4
        }
      ]
    }
  ],
  "nodes": [
    {
      "name": "teifel",
      "mesh": 0
    }
  ],
  "scene": 0,
  "scenes": [
    {
      "nodes": [
        0
      ]
    }
  ]
}
