# Blender v2.74 (sub 0) OBJ File: ''
# www.blender.org
mtllib runway.mtl
o Box
v 1.000000 0.206900 126.456902
v 1.000000 0.206900 1.456902
v 1.000000 0.081900 126.456902
v 1.000000 0.081900 1.456902
v -1.000000 0.206900 1.456902
v -1.000000 0.206900 126.456902
v -1.000000 0.081900 1.456902
v -1.000000 0.081900 126.456902
vt -62.000000 -0.000000
vt 63.000000 0.000000
vt 63.000000 1.000000
vt -62.000000 1.000000
vn 1.000000 0.000000 0.000000
vn -1.000000 0.000000 0.000000
vn 0.000000 1.000000 0.000000
vn 0.000000 -1.000000 0.000000
vn 0.000000 0.000000 1.000000
vn 0.000000 0.000000 -1.000000
usemtl Standard
s 1
f 1/1/1 3/1/1 4/2/1 2/2/1
f 5/3/2 7/3/2 8/4/2 6/4/2
f 5/3/3 6/4/3 1/1/3 2/2/3
f 8/4/4 7/3/4 4/2/4 3/1/4
f 6/4/5 8/4/5 3/1/5 1/1/5
f 2/2/6 4/2/6 7/3/6 5/3/6
