{
  "accessors": [
    {
      "name": "barrier_1_0_positions",
      "componentType": 5126,
      "count": 206,
      "min": [
        -1.0480999946594238,
        0.0008999999845400453,
        -0.8909000158309937
      ],
      "max": [
        1.0480999946594238,
        0.5275999903678894,
        0.8909000158309937
      ],
      "type": "VEC3",
      "bufferView": 0,
      "byteOffset": 0
    },
    {
      "name": "barrier_1_0_normals",
      "componentType": 5126,
      "count": 206,
      "min": [
        -0.9981648921966553,
        -1,
        -0.9892110228538513
      ],
      "max": [
        0.9968344569206238,
        0.9970491528511047,
        0.9861084818840027
      ],
      "type": "VEC3",
      "bufferView": 1,
      "byteOffset": 0
    },
    {
      "name": "barrier_1_0_texcoords",
      "componentType": 5126,
      "count": 206,
      "min": [
        1.0092999935150146,
        0.06210000067949295
      ],
      "max": [
        1.930999994277954,
        0.9765999913215637
      ],
      "type": "VEC2",
      "bufferView": 2,
      "byteOffset": 0
    },
    {
      "name": "barrier_1_0_indices",
      "componentType": 5123,
      "count": 936,
      "min": [
        0
      ],
      "max": [
        205
      ],
      "type": "SCALAR",
      "bufferView": 3,
      "byteOffset": 0
    }
  ],
  "asset": {
    "generator": "obj2gltf",
    "version": "2.0"
  },
  "buffers": [
    {
      "name": "Barrier",
      "byteLength": 8464,
      "uri": "data:application/octet-stream;base64,"
    }
  ],
  "bufferViews": [
    {
      "name": "bufferView_0",
      "buffer": 0,
      "byteLength": 2472,
      "byteOffset": 0,
      "byteStride": 12,
      "target": 34962
    },
    {
      "name": "bufferView_1",
      "buffer": 0,
      "byteLength": 2472,
      "byteOffset": 2472,
      "byteStride": 12,
      "target": 34962
    },
    {
      "name": "bufferView_2",
      "buffer": 0,
      "byteLength": 1648,
      "byteOffset": 4944,
      "byteStride": 8,
      "target": 34962
    },
    {
      "name": "bufferView_3",
      "buffer": 0,
      "byteLength": 1872,
      "byteOffset": 6592,
      "target": 34963
    }
  ],
  "materials": [
    {
      "name": "default",
      "pbrMetallicRoughness": {
        "baseColorFactor": [
          0.5,
          0.5,
          0.5,
          1
        ],
        "metallicFactor": 0,
        "roughnessFactor": 1
      },
      "emissiveFactor": [
        0,
        0,
        0
      ],
      "alphaMode": "OPAQUE",
      "doubleSided": false
    }
  ],
  "meshes": [
    {
      "name": "barrier_1",
      "primitives": [
        {
          "attributes": {
            "POSITION": 0,
            "NORMAL": 1,
            "TEXCOORD_0": 2
          },
          "indices": 3,
          "material": 0,
          "mode": 4
        }
      ]
    }
  ],
  "nodes": [
    {
      "name": "barrier",
      "mesh": 0
    }
  ],
  "scene": 0,
  "scenes": [
    {
      "nodes": [
        0
      ]
    }
  ]
}
