{
  "accessors": [
    {
      "name": "barrier_Cube-Mesh_0_positions",
      "componentType": 5126,
      "count": 152,
      "min": [
        -1.288931965827942,
        0,
        -0.3199999928474426
      ],
      "max": [
        1.288931965827942,
        0.8077660202980042,
        0.3199999928474426
      ],
      "type": "VEC3",
      "bufferView": 0,
      "byteOffset": 0
    },
    {
      "name": "barrier_Cube-Mesh_0_texcoords",
      "componentType": 5126,
      "count": 152,
      "min": [
        0.012563000433146954,
        0.008371000178158283
      ],
      "max": [
        0.9846810102462769,
        0.9808869957923889
      ],
      "type": "VEC2",
      "bufferView": 1,
      "byteOffset": 0
    },
    {
      "name": "barrier_Cube-Mesh_0_indices",
      "componentType": 5123,
      "count": 582,
      "min": [
        0
      ],
      "max": [
        151
      ],
      "type": "SCALAR",
      "bufferView": 2,
      "byteOffset": 0
    }
  ],
  "asset": {
    "generator": "obj2gltf",
    "version": "2.0"
  },
  "buffers": [
    {
      "name": "ConcreteBarrier",
      "byteLength": 3066176,
      "uri": "data:application/octet-stream;base64,"
    }
  ],
  "bufferViews": [
    {
      "name": "bufferView_0",
      "buffer": 0,
      "byteLength": 1824,
      "byteOffset": 0,
      "byteStride": 12,
      "target": 34962
    },
    {
      "name": "bufferView_1",
      "buffer": 0,
      "byteLength": 1216,
      "byteOffset": 1824,
      "byteStride": 8,
      "target": 34962
    },
    {
      "name": "bufferView_2",
      "buffer": 0,
      "byteLength": 1164,
      "byteOffset": 3040,
      "target": 34963
    },
    {
      "buffer": 0,
      "byteOffset": 4204,
      "byteLength": 3061972
    }
  ],
  "images": [
    {
      "name": "Bump_ConcreteBarrier",
      "mimeType": "image/x-tga",
      "bufferView": 3
    }
  ],
  "materials": [
    {
      "name": "M_ConcreteBarrier_T_ConcreteBarrier.tga",
      "pbrMetallicRoughness": {
        "baseColorFactor": [
          0.64,
          0.64,
          0.64,
          1
        ],
        "metallicFactor": 1,
        "roughnessFactor": 0.903921569
      },
      "normalTexture": {
        "index": 0
      },
      "emissiveFactor": [
        0,
        0,
        0
      ],
      "alphaMode": "OPAQUE",
      "doubleSided": false
    }
  ],
  "meshes": [
    {
      "name": "barrier_Cube-Mesh",
      "primitives": [
        {
          "attributes": {
            "POSITION": 0,
            "TEXCOORD_0": 1
          },
          "indices": 2,
          "material": 0,
          "mode": 4
        }
      ]
    }
  ],
  "nodes": [
    {
      "name": "barrier_Cube",
      "mesh": 0
    }
  ],
  "samplers": [
    {
      "magFilter": 9729,
      "minFilter": 9986,
      "wrapS": 10497,
      "wrapT": 10497
    }
  ],
  "scene": 0,
  "scenes": [
    {
      "nodes": [
        0
      ]
    }
  ],
  "textures": [
    {
      "name": "Bump_ConcreteBarrier",
      "sampler": 0,
      "source": 0
    }
  ]
}
