{
    "asset": {
        "generator": "COLLADA2GLTF",
        "version": "2.0"
    },
    "scene": 0,
    "scenes": [
        {
            "nodes": [
                8,
                6,
                3,
                0
            ]
        }
    ],
    "nodes": [
        {
            "children": [
                1
            ]
        },
        {
            "children": [
                2
            ]
        },
        {
            "mesh": 0
        },
        {
            "children": [
                4
            ]
        },
        {
            "children": [
                5
            ]
        },
        {
            "mesh": 1
        },
        {
            "children": [
                7
            ]
        },
        {
            "mesh": 2
        },
        {
            "children": [
                9
            ],
            "matrix": [
                0.009999999776482582,
                0.0,
                0.0,
                0.0,
                0.0,
                0.0,
                -0.009999999776482582,
                0.0,
                0.0,
                0.009999999776482582,
                0.0,
                0.0,
                0.0,
                0.0,
                0.0,
                1.0
            ]
        },
        {
            "matrix": [
                -0.17226600646972657,
                -0.9850500226020812,
                0.0,
                0.0,
                0.5909590125083923,
                -0.10334700345993042,
                0.8000540137290955,
                0.0,
                -0.7880939841270447,
                0.1378220021724701,
                0.5999270081520081,
                0.0,
                -2635.142333984375,
                453.4599914550781,
                2323.301513671875,
                1.0
            ],
            "camera": 0
        }
    ],
    "cameras": [
        {
            "perspective": {
                "aspectRatio": 1.3333333730697632,
                "yfov": 0.523598313331604,
                "zfar": 2540.0,
                "znear": 2.539999961853028
            },
            "type": "perspective"
        }
    ],
    "meshes": [
        {
            "primitives": [
                {
                    "attributes": {
                        "NORMAL": 1,
                        "POSITION": 2,
                        "TEXCOORD_0": 3
                    },
                    "indices": 0,
                    "mode": 4,
                    "material": 0
                }
            ],
            "name": "mesh3-geometry"
        },
        {
            "primitives": [
                {
                    "attributes": {
                        "NORMAL": 5,
                        "POSITION": 6,
                        "TEXCOORD_0": 7
                    },
                    "indices": 4,
                    "mode": 4,
                    "material": 1
                }
            ],
            "name": "mesh2-geometry"
        },
        {
            "primitives": [
                {
                    "attributes": {
                        "NORMAL": 9,
                        "POSITION": 10,
                        "TEXCOORD_0": 11
                    },
                    "indices": 8,
                    "mode": 4,
                    "material": 2
                }
            ],
            "name": "mesh1-geometry"
        }
    ],
    "accessors": [
        {
            "bufferView": 0,
            "byteOffset": 0,
            "componentType": 5123,
            "count": 342,
            "max": [
                255
            ],
            "min": [
                0
            ],
            "type": "SCALAR"
        },
        {
            "bufferView": 1,
            "byteOffset": 0,
            "componentType": 5126,
            "count": 256,
            "max": [
                0.9748150110244752,
                0.9627730250358582,
                0.9013779759407044
            ],
            "min": [
                -0.9748150110244752,
                -0.9627730250358582,
                -0.9013779759407044
            ],
            "type": "VEC3"
        },
        {
            "bufferView": 1,
            "byteOffset": 3072,
            "componentType": 5126,
            "count": 256,
            "max": [
                57.35214996337891,
                32.11356353759766,
                68.97936248779297
            ],
            "min": [
                -28.188711166381837,
                -37.58184051513672,
                0.24164800345897678
            ],
            "type": "VEC3"
        },
        {
            "bufferView": 2,
            "byteOffset": 0,
            "componentType": 5126,
            "count": 256,
            "max": [
                4.831552982330322,
                1.783931016921997
            ],
            "min": [
                -1.7571519613265992,
                -1.7039470672607422
            ],
            "type": "VEC2"
        },
        {
            "bufferView": 0,
            "byteOffset": 684,
            "componentType": 5123,
            "count": 264,
            "max": [
                211
            ],
            "min": [
                0
            ],
            "type": "SCALAR"
        },
        {
            "bufferView": 1,
            "byteOffset": 6144,
            "componentType": 5126,
            "count": 212,
            "max": [
                0.934723973274231,
                0.997596025466919,
                0.9606000185012816
            ],
            "min": [
                -0.934723973274231,
                -0.997596025466919,
                -0.9606000185012816
            ],
            "type": "VEC3"
        },
        {
            "bufferView": 1,
            "byteOffset": 8688,
            "componentType": 5126,
            "count": 212,
            "max": [
                99.06060028076172,
                63.28239440917969,
                74.32192993164063
            ],
            "min": [
                -73.97731018066406,
                -31.065908432006837,
                0.0
            ],
            "type": "VEC3"
        },
        {
            "bufferView": 2,
            "byteOffset": 2048,
            "componentType": 5126,
            "count": 212,
            "max": [
                4.22457218170166,
                2.873878955841065
            ],
            "min": [
                -3.1286330223083498,
                -2.24691390991211
            ],
            "type": "VEC2"
        },
        {
            "bufferView": 0,
            "byteOffset": 1212,
            "componentType": 5123,
            "count": 258,
            "max": [
                107
            ],
            "min": [
                0
            ],
            "type": "SCALAR"
        },
        {
            "bufferView": 1,
            "byteOffset": 11232,
            "componentType": 5126,
            "count": 108,
            "max": [
                0.9105240106582642,
                0.9993640184402466,
                0.8342800140380859
            ],
            "min": [
                -0.9105240106582642,
                -0.9993640184402466,
                -0.8342800140380859
            ],
            "type": "VEC3"
        },
        {
            "bufferView": 1,
            "byteOffset": 12528,
            "componentType": 5126,
            "count": 108,
            "max": [
                155.02584838867188,
                101.42286682128906,
                69.26541900634766
            ],
            "min": [
                0.0,
                0.0,
                0.0
            ],
            "type": "VEC3"
        },
        {
            "bufferView": 2,
            "byteOffset": 3744,
            "componentType": 5126,
            "count": 108,
            "max": [
                -0.018122000619769098,
                3.97844910621643
            ],
            "min": [
                -5.279875755310059,
                -0.053743958473205569
            ],
            "type": "VEC2"
        }
    ],
    "materials": [
        {
            "pbrMetallicRoughness": {
                "baseColorTexture": {
                    "index": 0
                },
                "metallicFactor": 0.0
            },
            "emissiveFactor": [
                0.0,
                0.0,
                0.0
            ],
            "name": "material2-effect"
        },
        {
            "pbrMetallicRoughness": {
                "baseColorTexture": {
                    "index": 1
                },
                "metallicFactor": 0.0
            },
            "emissiveFactor": [
                0.0,
                0.0,
                0.0
            ],
            "name": "material1-effect"
        },
        {
            "pbrMetallicRoughness": {
                "baseColorTexture": {
                    "index": 2
                },
                "metallicFactor": 0.0
            },
            "emissiveFactor": [
                0.0,
                0.0,
                0.0
            ],
            "name": "material0-effect"
        }
    ],
    "textures": [
        {
            "sampler": 0,
            "source": 0
        },
        {
            "sampler": 0,
            "source": 1
        },
        {
            "sampler": 0,
            "source": 2
        }
    ],
    "images": [
        {
            "uri": "texture2.jpg"
        },
        {
            "uri": "texture1.jpg"
        },
        {
            "uri": "texture0.jpg"
        }
    ],
    "samplers": [
        {
            "magFilter": 9729,
            "minFilter": 9986,
            "wrapS": 10497,
            "wrapT": 10497
        }
    ],
    "bufferViews": [
        {
            "buffer": 0,
            "byteOffset": 18432,
            "byteLength": 1728,
            "target": 34963
        },
        {
            "buffer": 0,
            "byteOffset": 0,
            "byteLength": 13824,
            "byteStride": 12,
            "target": 34962
        },
        {
            "buffer": 0,
            "byteOffset": 13824,
            "byteLength": 4608,
            "byteStride": 8,
            "target": 34962
        }
    ],
    "buffers": [
        {
            "byteLength": 20160,
            "uri": "data:application/octet-stream;base64,"
        }
    ]
}
