{
  "accessors": [
    {
      "name": "phone_1_0_positions",
      "componentType": 5126,
      "count": 550,
      "min": [
        -0.7065430283546448,
        -3.063843011856079,
        -6.260863780975342
      ],
      "max": [
        0.7065430283546448,
        2.669434070587158,
        6.260863780975342
      ],
      "type": "VEC3",
      "bufferView": 0,
      "byteOffset": 0
    },
    {
      "name": "phone_1_0_normals",
      "componentType": 5126,
      "count": 550,
      "min": [
        -1,
        -1,
        -1
      ],
      "max": [
        1,
        1,
        1
      ],
      "type": "VEC3",
      "bufferView": 1,
      "byteOffset": 0
    },
    {
      "name": "phone_1_0_texcoords",
      "componentType": 5126,
      "count": 550,
      "min": [
        -1.6032379865646362,
        -3.692138910293579
      ],
      "max": [
        2.603238105773926,
        4.692139148712158
      ],
      "type": "VEC2",
      "bufferView": 2,
      "byteOffset": 0
    },
    {
      "name": "phone_1_0_indices",
      "componentType": 5123,
      "count": 1824,
      "min": [
        0
      ],
      "max": [
        549
      ],
      "type": "SCALAR",
      "bufferView": 3,
      "byteOffset": 0
    },
    {
      "name": "phone_1_1_positions",
      "componentType": 5126,
      "count": 84,
      "min": [
        -0.05334499850869179,
        -3.063843011856079,
        -6.24169921875
      ],
      "max": [
        0.05334499850869179,
        2.669434070587158,
        6.24169921875
      ],
      "type": "VEC3",
      "bufferView": 0,
      "byteOffset": 6600
    },
    {
      "name": "phone_1_1_normals",
      "componentType": 5126,
      "count": 84,
      "min": [
        -0.5957000255584717,
        -1,
        -0.5945278406143188
      ],
      "max": [
        0.5957000255584717,
        1,
        0.5945990681648254
      ],
      "type": "VEC3",
      "bufferView": 1,
      "byteOffset": 6600
    },
    {
      "name": "phone_1_1_texcoords",
      "componentType": 5126,
      "count": 84,
      "min": [
        0.2786099910736084,
        0.2786099910736084
      ],
      "max": [
        0.7213900089263916,
        0.7213900089263916
      ],
      "type": "VEC2",
      "bufferView": 2,
      "byteOffset": 4400
    },
    {
      "name": "phone_1_1_indices",
      "componentType": 5123,
      "count": 240,
      "min": [
        0
      ],
      "max": [
        83
      ],
      "type": "SCALAR",
      "bufferView": 3,
      "byteOffset": 3648
    },
    {
      "name": "phone_1_2_positions",
      "componentType": 5126,
      "count": 3552,
      "min": [
        -0.5611569881439209,
        1.9094849824905396,
        -6.242187976837158
      ],
      "max": [
        0.6257320046424866,
        2.500243902206421,
        6.2259521484375
      ],
      "type": "VEC3",
      "bufferView": 0,
      "byteOffset": 7608
    },
    {
      "name": "phone_1_2_normals",
      "componentType": 5126,
      "count": 3552,
      "min": [
        -1,
        -1,
        -1
      ],
      "max": [
        1,
        1,
        1
      ],
      "type": "VEC3",
      "bufferView": 1,
      "byteOffset": 7608
    },
    {
      "name": "phone_1_2_texcoords",
      "componentType": 5126,
      "count": 3552,
      "min": [
        0.34375,
        0
      ],
      "max": [
        0.65625,
        1
      ],
      "type": "VEC2",
      "bufferView": 2,
      "byteOffset": 5072
    },
    {
      "name": "phone_1_2_indices",
      "componentType": 5123,
      "count": 15648,
      "min": [
        0
      ],
      "max": [
        3551
      ],
      "type": "SCALAR",
      "bufferView": 3,
      "byteOffset": 4128
    },
    {
      "name": "phone_1_3_positions",
      "componentType": 5126,
      "count": 3900,
      "min": [
        -0.5284420251846313,
        1.651366949081421,
        -6.2322998046875
      ],
      "max": [
        0.5800780057907104,
        2.067138910293579,
        6.198914051055908
      ],
      "type": "VEC3",
      "bufferView": 0,
      "byteOffset": 50232
    },
    {
      "name": "phone_1_3_normals",
      "componentType": 5126,
      "count": 3900,
      "min": [
        -0.9999998807907104,
        -0.9999878406524658,
        -0.14724794030189514
      ],
      "max": [
        0.9999999403953552,
        0.9999565482139587,
        0.18684495985507965
      ],
      "type": "VEC3",
      "bufferView": 1,
      "byteOffset": 50232
    },
    {
      "name": "phone_1_3_texcoords",
      "componentType": 5126,
      "count": 3900,
      "min": [
        0.5888890027999878,
        0
      ],
      "max": [
        0.8961169719696045,
        1
      ],
      "type": "VEC2",
      "bufferView": 2,
      "byteOffset": 33488
    },
    {
      "name": "phone_1_3_indices",
      "componentType": 5123,
      "count": 13632,
      "min": [
        0
      ],
      "max": [
        3899
      ],
      "type": "SCALAR",
      "bufferView": 3,
      "byteOffset": 35424
    }
  ],
  "asset": {
    "generator": "obj2gltf",
    "version": "2.0"
  },
  "buffers": [
    {
      "name": "ObjPhone",
      "byteLength": 321440,
      "uri": "data:application/octet-stream;base64,"
    }
  ],
  "bufferViews": [
    {
      "name": "bufferView_0",
      "buffer": 0,
      "byteLength": 97032,
      "byteOffset": 0,
      "byteStride": 12,
      "target": 34962
    },
    {
      "name": "bufferView_1",
      "buffer": 0,
      "byteLength": 97032,
      "byteOffset": 97032,
      "byteStride": 12,
      "target": 34962
    },
    {
      "name": "bufferView_2",
      "buffer": 0,
      "byteLength": 64688,
      "byteOffset": 194064,
      "byteStride": 8,
      "target": 34962
    },
    {
      "name": "bufferView_3",
      "buffer": 0,
      "byteLength": 62688,
      "byteOffset": 258752,
      "target": 34963
    }
  ],
  "materials": [
    {
      "name": "lambert2SG",
      "pbrMetallicRoughness": {
        "baseColorFactor": [
          0.5,
          0.5,
          0.5,
          1
        ],
        "metallicFactor": 0,
        "roughnessFactor": 1
      },
      "emissiveFactor": [
        0,
        0,
        0
      ],
      "alphaMode": "OPAQUE",
      "doubleSided": false
    },
    {
      "name": "POSTE:lambert5SG",
      "pbrMetallicRoughness": {
        "baseColorFactor": [
          0.5,
          0.5,
          0.5,
          1
        ],
        "metallicFactor": 0,
        "roughnessFactor": 1
      },
      "emissiveFactor": [
        0,
        0,
        0
      ],
      "alphaMode": "OPAQUE",
      "doubleSided": false
    },
    {
      "name": "blinn2SG",
      "pbrMetallicRoughness": {
        "baseColorFactor": [
          0.5,
          0.5,
          0.5,
          1
        ],
        "metallicFactor": 0,
        "roughnessFactor": 1
      },
      "emissiveFactor": [
        0,
        0,
        0
      ],
      "alphaMode": "OPAQUE",
      "doubleSided": false
    },
    {
      "name": "blinn1SG",
      "pbrMetallicRoughness": {
        "baseColorFactor": [
          0.5,
          0.5,
          0.5,
          1
        ],
        "metallicFactor": 0,
        "roughnessFactor": 1
      },
      "emissiveFactor": [
        0,
        0,
        0
      ],
      "alphaMode": "OPAQUE",
      "doubleSided": false
    }
  ],
  "meshes": [
    {
      "name": "phone_1",
      "primitives": [
        {
          "attributes": {
            "POSITION": 0,
            "NORMAL": 1,
            "TEXCOORD_0": 2
          },
          "indices": 3,
          "material": 0,
          "mode": 4
        },
        {
          "attributes": {
            "POSITION": 4,
            "NORMAL": 5,
            "TEXCOORD_0": 6
          },
          "indices": 7,
          "material": 1,
          "mode": 4
        },
        {
          "attributes": {
            "POSITION": 8,
            "NORMAL": 9,
            "TEXCOORD_0": 10
          },
          "indices": 11,
          "material": 2,
          "mode": 4
        },
        {
          "attributes": {
            "POSITION": 12,
            "NORMAL": 13,
            "TEXCOORD_0": 14
          },
          "indices": 15,
          "material": 3,
          "mode": 4
        }
      ]
    }
  ],
  "nodes": [
    {
      "name": "phone",
      "mesh": 0
    }
  ],
  "scene": 0,
  "scenes": [
    {
      "nodes": [
        0
      ]
    }
  ]
}
